<svg height="4286" width="720" xmlns="http://www.w3.org/2000/svg">
<rect height="4286" fill="#555" width="720"></rect>
<text fill="#7f7" font-family="Courier New" font-size="12" xml:space="preserve">
<tspan x="10" y="26">2017-03-20 18:15:29 +0800u000atweak npmdoc readme</tspan>
<tspan x="10" y="42"></tspan>
<tspan x="10" y="58">2017-03-20 17:54:29 +0800u000aadd build badge</tspan>
<tspan x="10" y="74"></tspan>
<tspan x="10" y="90">2017-03-20 17:41:27 +0800u000aimprove performance of function apidocCreate</tspan>
<tspan x="10" y="106"></tspan>
<tspan x="10" y="122">2017-03-20 17:26:45 +0800u000a- add package-listing to npmdoc</tspan>
<tspan x="10" y="138"></tspan>
<tspan x="10" y="154">2017-03-20 02:12:20 +0800u000a- rename lib.xxx.npm_scripts.sh to npm_scripts.sh</tspan>
<tspan x="10" y="170"></tspan>
<tspan x="10" y="186">2017-03-20 01:47:36 +0800u000a- add env var npm_package_buildNpmdocMain to customize npmdoc targ\</tspan>
<tspan x="10" y="202">et</tspan>
<tspan x="10" y="218"></tspan>
<tspan x="10" y="234">2017-03-20 01:00:39 +0800u000a- security - rewrite function moduleDirname, so that it doesn't ha\</tspan>
<tspan x="10" y="250">ve to require arbitrary modules</tspan>
<tspan x="10" y="266"></tspan>
<tspan x="10" y="282">2017-03-19 20:29:06 +0800u000a- security - disable requiring arbitrary modules in function modul\</tspan>
<tspan x="10" y="298">eDirname</tspan>
<tspan x="10" y="314"></tspan>
<tspan x="10" y="330">2017-03-19 18:42:51 +0800u000a- add shell function shUtility2GrepTravisYml</tspan>
<tspan x="10" y="346"></tspan>
<tspan x="10" y="362">2017-03-19 18:27:57 +0800u000a- add commit-message-meta macro 'promote branch1 -&gt; branch2'</tspan>
<tspan x="10" y="378"></tspan>
<tspan x="10" y="394">2017-03-19 17:37:05 +0800u000a- fix 'span class' error in https://www.npmjs.com/package/npmdoc-g\</tspan>
<tspan x="10" y="410">lob</tspan>
<tspan x="10" y="426"></tspan>
<tspan x="10" y="442">2017-03-19 17:09:20 +0800u000a- add env var TRAVIS_REPO_CREATE_FORCE to force re-creation of npm\</tspan>
<tspan x="10" y="458">doc</tspan>
<tspan x="10" y="474">- add optional commit-message for PUT and DELETE requests in github-crud</tspan>
<tspan x="10" y="490">- add package-description to apidoc</tspan>
<tspan x="10" y="506"></tspan>
<tspan x="10" y="522">2017-03-19 08:39:00 +0800u000a- add functions ajaxOnParallel and ajaxOnSeries</tspan>
<tspan x="10" y="538">- add shell-function shNpmdocRepoCreateAndPush to automate creation of npmdoc's</tspan>
<tspan x="10" y="554">- merge function local.runIfTrue -&gt; local.nop</tspan>
<tspan x="10" y="570">- shBuildPrint message for deprecate and publish operations</tspan>
<tspan x="10" y="586"></tspan>
<tspan x="10" y="602">2017-03-17 21:15:11 +0800u000a[npm publish] - npm publish 2017.3.17</tspan>
<tspan x="10" y="618">- fix quickstart demo for example.js</tspan>
<tspan x="10" y="634">- allow auto-deprecating of aliases in publish branch</tspan>
<tspan x="10" y="650">- allow auto-publishing of aliases in publish branch</tspan>
<tspan x="10" y="666"></tspan>
<tspan x="10" y="682">2017-03-17 05:05:24 +0800u000a[npm publish] - npm publish 2017.3.16</tspan>
<tspan x="10" y="698">- add function buildNpmdoc and buildTest</tspan>
<tspan x="10" y="714">- automate building and publishing of npmdoc's</tspan>
<tspan x="10" y="730">- commit tag 'npm publish' will publish package in alpha-branch and promote to beta</tspan>
<tspan x="10" y="746">- harden shell-function shPasswordEnvUnset</tspan>
<tspan x="10" y="762">- remove '|| return $?' from shell-scripts when possible to fix 'set -e' failing to exit on erro\</tspan>
<tspan x="10" y="778">r</tspan>
<tspan x="10" y="794">- rename function onErrorAssert -&gt; onErrorThrow</tspan>
<tspan x="10" y="810">- partially revert npm_package_nameAlias back to npm_package_name</tspan>
<tspan x="10" y="826"></tspan>
<tspan x="10" y="842">2017-03-11 03:56:44 +0800u000a- npm publish 2017.3.10</tspan>
<tspan x="10" y="858">- fix build in beta branch</tspan>
<tspan x="10" y="874"></tspan>
<tspan x="10" y="890">2017-03-11 02:50:36 +0800u000a- npm publish 2017.3.9</tspan>
<tspan x="10" y="906">- add functions moduleDirname and onErrorAssert</tspan>
<tspan x="10" y="922">- add shell-command shPasswordEnvUnset</tspan>
<tspan x="10" y="938">- rename name api-doc -&gt; apidoc</tspan>
<tspan x="10" y="954">- revamp build scripts</tspan>
<tspan x="10" y="970">- split function buildApidoc into new file lib.apidoc.js</tspan>
<tspan x="10" y="986">- verify README.md's build-links during build</tspan>
<tspan x="10" y="1002"></tspan>
<tspan x="10" y="1018">2017-03-01 17:52:26 +0800u000a- npm publish 2017.2.28</tspan>
<tspan x="10" y="1034">- build - add publish build-branch</tspan>
<tspan x="10" y="1050">- build - auto-clean build if commit-message is CLEAN_BUILD</tspan>
<tspan x="10" y="1066">- build - auto-tag branch in master build-branch</tspan>
<tspan x="10" y="1082">- README.md - normalize browser-script in example.js</tspan>
<tspan x="10" y="1098">- promote utility2 plug in README.md, api-doc, code-coverage, rollup, test-coverage</tspan>
<tspan x="10" y="1114">- lib.db.js - add ttl-cache</tspan>
<tspan x="10" y="1130">- lib.utility2.js - revamp function buildApiDoc</tspan>
<tspan x="10" y="1146">- lib.utility2.sh - revamp shell-function shNpmPublish</tspan>
<tspan x="10" y="1162"></tspan>
<tspan x="10" y="1178">2017-02-21 03:06:56 +0800u000a- npm publish 2017.2.20</tspan>
<tspan x="10" y="1194">- add field nameOriginal to package.json</tspan>
<tspan x="10" y="1210">- do not cover rollups</tspan>
<tspan x="10" y="1226">- merge shell-function shNpmPublishAlias into shNpmPublish</tspan>
<tspan x="10" y="1242">- normalize example.html</tspan>
<tspan x="10" y="1258"></tspan>
<tspan x="10" y="1274">2017-02-20 02:49:59 +0800u000a- npm publish 2017.2.19</tspan>
<tspan x="10" y="1290">- replace env var npm_package_name with npm_package_nameAlias in istanbul code-coverage</tspan>
<tspan x="10" y="1306">- revamp shell-function shNpmPublishAlias</tspan>
<tspan x="10" y="1322"></tspan>
<tspan x="10" y="1338">2017-02-19 01:09:51 +0800u000a- npm publish 2017.2.18</tspan>
<tspan x="10" y="1354">- add shell-function shReadmeTestExampleJs</tspan>
<tspan x="10" y="1370">- do not auto-uglify js-assets in production</tspan>
<tspan x="10" y="1386">- rename doc-api to api-doc</tspan>
<tspan x="10" y="1402">- rename hrku01 to h1</tspan>
<tspan x="10" y="1418">- rename local.template* to local.assetsDict[assets.*.template]</tspan>
<tspan x="10" y="1434">- revamp function buildApiDoc</tspan>
<tspan x="10" y="1450">- revamp function buildReadme and include testCase_buildReadme_default inside testCase_buildApp_\</tspan>
<tspan x="10" y="1466">default</tspan>
<tspan x="10" y="1482">- remove functions assetsAlias, assetsWrite</tspan>
<tspan x="10" y="1498">- use env var npm_package_nameAlias over npm_package_name</tspan>
<tspan x="10" y="1514"></tspan>
<tspan x="10" y="1530">2017-02-06 21:14:20 +0800u000a- npm publish 2017.2.6</tspan>
<tspan x="10" y="1546">- allow env var npm_config_mode_test_case to have comma-separated list of test-cases</tspan>
<tspan x="10" y="1562">- replace function requestResponseCleanup with streamListCleanup</tspan>
<tspan x="10" y="1578">- don't use nameAlias in assets</tspan>
<tspan x="10" y="1594">- rename base64 functions with base64 as prefix</tspan>
<tspan x="10" y="1610">- add commandline options --eval -e --interactive -i</tspan>
<tspan x="10" y="1626">- add env var npm_pacakge_nameHeroku</tspan>
<tspan x="10" y="1642">- add function assetsAlias</tspan>
<tspan x="10" y="1658">- add shell-functions shUtility2DependentsSync shUtility2RollupCreate</tspan>
<tspan x="10" y="1674">- merge files lib.* into standaalone file assets.utility2.rollup.js</tspan>
<tspan x="10" y="1690">- merge files lib.swgg.* into lib.swgg.js</tspan>
<tspan x="10" y="1706"></tspan>
<tspan x="10" y="1722">2017-01-27 14:44:40 +0800u000a- move most logic from Dockerfile.latest to Dockerfile.base</tspan>
<tspan x="10" y="1738">- add shell-function shImageToDataUri</tspan>
<tspan x="10" y="1754">- add shell-function shSshReverseTunnel</tspan>
<tspan x="10" y="1770">- add function sjclHmacSha256Create</tspan>
<tspan x="10" y="1786">- replace localhost with 127.0.0.1</tspan>
<tspan x="10" y="1802"></tspan>
<tspan x="10" y="1818">2017-01-05 20:57:31 +0800u000a- npm publish 2017.1.5</tspan>
<tspan x="10" y="1834">- automate readme-generation with new functions local.buildReadmeElectronLite and local.buildRea\</tspan>
<tspan x="10" y="1850">dmeJslintLite</tspan>
<tspan x="10" y="1866">- revamp github-crud-api</tspan>
<tspan x="10" y="1882">- add function httpRequest</tspan>
<tspan x="10" y="1898">- add shell-function shNpmPublishAlias</tspan>
<tspan x="10" y="1914">- remove function domQuerySelectorAll</tspan>
<tspan x="10" y="1930">- update documentation-generator</tspan>
<tspan x="10" y="1946"></tspan>
<tspan x="10" y="1962">2016-12-26 15:10:22 +0800u000a- add file lib.swgg.css</tspan>
<tspan x="10" y="1978">- add file lib.swgg.js</tspan>
<tspan x="10" y="1994">- add file lib.swgg.json-schema.json</tspan>
<tspan x="10" y="2010">- add file lib.swgg.petstore.json</tspan>
<tspan x="10" y="2026">- add file lib.swgg.schema.json</tspan>
<tspan x="10" y="2042">- add file lib.swgg.ui.js</tspan>
<tspan x="10" y="2058">- add heroku-postbuild npm-script</tspan>
<tspan x="10" y="2074"></tspan>
<tspan x="10" y="2090">2016-12-25 02:10:59 +0800u000a- npm publish 2016.12.2</tspan>
<tspan x="10" y="2106">- merge github-crud into this package</tspan>
<tspan x="10" y="2122">- revamp heroku-deploy</tspan>
<tspan x="10" y="2138">- add middlewareForwardProxy</tspan>
<tspan x="10" y="2154">- add modeDebug option to function local.ajax</tspan>
<tspan x="10" y="2170"></tspan>
<tspan x="10" y="2186">2016-12-13 21:36:58 +0800u000a- npm publish 2016.12.1</tspan>
<tspan x="10" y="2202">- merge utility2 namespace into local namespace</tspan>
<tspan x="10" y="2218">- revamp encryption features to primarily use json-web-encryption</tspan>
<tspan x="10" y="2234"></tspan>
<tspan x="10" y="2250">2016-12-02 12:46:27 +0800u000a- npm publish 2016.11.2</tspan>
<tspan x="10" y="2266">- streamline build-process for other packages</tspan>
<tspan x="10" y="2282"></tspan>
<tspan x="10" y="2298">2016-11-29 15:15:04 +0800u000a- npm publish 2016.11.1</tspan>
<tspan x="10" y="2314">- rename files index.* -&gt; lib.utility2.*</tspan>
<tspan x="10" y="2330">- use 'local' as primary namespace for tests</tspan>
<tspan x="10" y="2346">- replace function uglifyIfProduction with assetsWrite</tspan>
<tspan x="10" y="2362">- rename function middlewareJsonpStateInitDefault -&gt; middlewareJsonpStateInit</tspan>
<tspan x="10" y="2378">- add env npm_package_nameAlias</tspan>
<tspan x="10" y="2394">- add webkit-polyfill for TextDecoder and TextEncoder</tspan>
<tspan x="10" y="2410"></tspan>
<tspan x="10" y="2426">2016-11-21 09:31:23 +0800u000a- npm publish 2016.10.4</tspan>
<tspan x="10" y="2442">- add es6-syntax support for code-coverage</tspan>
<tspan x="10" y="2458">- add functions utility2.normalizeDict and utility2.normalizeList</tspan>
<tspan x="10" y="2474">- coverage - globalize local.codeDict to global.__coverageCodeDict__</tspan>
<tspan x="10" y="2490">- coverage - add in-file config-var /* istanbul ignore all */ to ignore the file</tspan>
<tspan x="10" y="2506"></tspan>
<tspan x="10" y="2522">2016-11-11 20:03:17 +0800u000a- npm publish 2016.10.3</tspan>
<tspan x="10" y="2538">- coverage - add env-variable npm_config_mode_coverage_append to allow appending coverage to pre\</tspan>
<tspan x="10" y="2554">vious reports</tspan>
<tspan x="10" y="2570">- coverage - change behavior of npm_config_mode_coverage=all to cover all files</tspan>
<tspan x="10" y="2586">- function utility2.replStart - make it a standalone function</tspan>
<tspan x="10" y="2602">- function utility2.uglify - prefer uglifying code with 80-column-width</tspan>
<tspan x="10" y="2618"></tspan>
<tspan x="10" y="2634">2016-11-07 23:47:37 +0800u000a- npm publish 2016.10.2</tspan>
<tspan x="10" y="2650">- decouple lib.db.js from utility2's init</tspan>
<tspan x="10" y="2666">- replace loading spinner with topbar</tspan>
<tspan x="10" y="2682">- fix utility2.errorDefault getting its stack prepended</tspan>
<tspan x="10" y="2698">- rename .ajaxProgressDiv -&gt; #ajaxProgressDiv1, .testReportDiv -&gt; #testReportDiv1</tspan>
<tspan x="10" y="2714">- merge functions utility2.taskOnTaskUpsert and utility2.taskOnErrorPush -&gt; utility2.taskCreate</tspan>
<tspan x="10" y="2730">- change signature of function utility2.taskCreateCached</tspan>
<tspan x="10" y="2746">- remove functions utility2.ajaxProgressShow, utility2.dbReset</tspan>
<tspan x="10" y="2762">- README.md - add cdn-download links</tspan>
<tspan x="10" y="2778">- README.md - replace alpha api-doc with beta api-doc</tspan>
<tspan x="10" y="2794"></tspan>
<tspan x="10" y="2810">2016-10-17 20:46:38 +0800u000a- npm publish 2016.10.1</tspan>
<tspan x="10" y="2826">- migrate from lib.nedb.js to lib.db.js</tspan>
<tspan x="10" y="2842">- make index.js a standalone script</tspan>
<tspan x="10" y="2858">- add property utility2.testCaseDict</tspan>
<tspan x="10" y="2874">- cull testCase_xxx properties in function docApiCreate</tspan>
<tspan x="10" y="2890">- auto-default null / undefined arguments to empty object {} in utility2.objectSetDefault and ut\</tspan>
<tspan x="10" y="2906">ility2.objectSetOverride</tspan>
<tspan x="10" y="2922">- prevent potential infinite recursion bug in function utility2.onNext</tspan>
<tspan x="10" y="2938"></tspan>
<tspan x="10" y="2954">2016-10-02 11:46:13 +0800u000a- npm publish 2016.9.1</tspan>
<tspan x="10" y="2970">- revamp lib.nedb.js</tspan>
<tspan x="10" y="2986">- reset onReadyAfter for testRun</tspan>
<tspan x="10" y="3002">- add function utility2.onNext</tspan>
<tspan x="10" y="3018">- streamline test.js</tspan>
<tspan x="10" y="3034"></tspan>
<tspan x="10" y="3050">2016-08-27 10:56:36 +0800u000a- npm publish 2016.8.2</tspan>
<tspan x="10" y="3066">- ensure utility2.dbSeedListUpsert runs after utility2.onResetAfter</tspan>
<tspan x="10" y="3082"></tspan>
<tspan x="10" y="3098">2016-08-27 05:40:58 +0800u000a- npm publish 2016.8.1</tspan>
<tspan x="10" y="3114">- migrate nedb-api from swagger-lite to utility2</tspan>
<tspan x="10" y="3130">- add functions utility2.db*</tspan>
<tspan x="10" y="3146"></tspan>
<tspan x="10" y="3162">2016-08-12 05:38:50 +0200u000a- npm publish 2016.7.5</tspan>
<tspan x="10" y="3178">- handle repl-server-error</tspan>
<tspan x="10" y="3194">- display instrumented-code in web-ui</tspan>
<tspan x="10" y="3210">- strip base64 '=' padding from local.utility2.sjclCipherAes128Encrypt</tspan>
<tspan x="10" y="3226"></tspan>
<tspan x="10" y="3242">2016-08-07 21:41:12 +0200u000a- npm publish 2016.7.4</tspan>
<tspan x="10" y="3258">- fix example.js quickstart demo</tspan>
<tspan x="10" y="3274"></tspan>
<tspan x="10" y="3290">2016-08-07 21:09:53 +0200u000a- npm publish 2016.7.3</tspan>
<tspan x="10" y="3306">- deploy standalone-app to heroku</tspan>
<tspan x="10" y="3322">- allow repl-server to be accessed remotely via tcp</tspan>
<tspan x="10" y="3338">- add coverage option to command 'utility2 start'</tspan>
<tspan x="10" y="3354">- rename functions in jslint, stateInit, tasks</tspan>
<tspan x="10" y="3370"></tspan>
<tspan x="10" y="3386">2016-07-31 14:25:38 +0200u000a- npm publish 2016.7.2</tspan>
<tspan x="10" y="3402">- fix code-coverage in example.js</tspan>
<tspan x="10" y="3418"></tspan>
<tspan x="10" y="3434">2016-07-31 14:02:32 +0200u000a- npm publish 2016.7.1</tspan>
<tspan x="10" y="3450">- allow packages that don't depend on utility2 to be built by it</tspan>
<tspan x="10" y="3466">- fix shell function shTravisEncryptYml</tspan>
<tspan x="10" y="3482">- rename debugPrint to debugInline</tspan>
<tspan x="10" y="3498"></tspan>
<tspan x="10" y="3514">2016-07-16 16:12:03 +0200u000a- npm publish 2016.6.2</tspan>
<tspan x="10" y="3530">- fix coverage-key collision bug in istanbul instrumenter</tspan>
<tspan x="10" y="3546"></tspan>
<tspan x="10" y="3562">2016-07-16 13:23:34 +0200u000a- npm publish 2016.6.1</tspan>
<tspan x="10" y="3578">- replace lib bcrypt with sjcl.misc.scrypt</tspan>
<tspan x="10" y="3594">- replace lib cryptojs with sjcl</tspan>
<tspan x="10" y="3610"></tspan>
<tspan x="10" y="3626">2016-07-01 02:54:13 +0200u000a- npm publish 2016.5.5</tspan>
<tspan x="10" y="3642">- explicitly require the macro /* istanbul instrument in package ... */ for a file to be covered</tspan>
<tspan x="10" y="3658">- generalize utility2.requireExampleJsFromReadme</tspan>
<tspan x="10" y="3674">- merge shell function shReadmeExportScripts into shInit</tspan>
<tspan x="10" y="3690"></tspan>
<tspan x="10" y="3706">2016-06-15 17:55:10 +0300u000a- npm publish 2016.5.4</tspan>
<tspan x="10" y="3722">- deploy standalone app to heroku test-server</tspan>
<tspan x="10" y="3738">- add file lib.nedb.js</tspan>
<tspan x="10" y="3754">- add 'run internal test' button in webpage</tspan>
<tspan x="10" y="3770">- add env var npm_config_mode_backend to disable utility2.serverLocalUrlTest</tspan>
<tspan x="10" y="3786">- add download link for example.js and example.sh in README.md</tspan>
<tspan x="10" y="3802">- add minified asset assets.app.min.js</tspan>
<tspan x="10" y="3818">- prevent side-effects in function utility2.docApiCreate</tspan>
<tspan x="10" y="3834">- template README.md with package.json</tspan>
<tspan x="10" y="3850">- add function utility2.jslintAndPrintHtml</tspan>
<tspan x="10" y="3866">- replace function utility2.requireFromScript with utility2.requireExampleJsFromReadme</tspan>
<tspan x="10" y="3882">- fix missing screen-capture of npmTestPublished</tspan>
<tspan x="10" y="3898"></tspan>
<tspan x="10" y="3914">2016-06-12 01:36:58 +0300u000a- npm publish 2016.5.3</tspan>
<tspan x="10" y="3930">- add homepage-link in api-doc</tspan>
<tspan x="10" y="3946">- fix test-report styling</tspan>
<tspan x="10" y="3962"></tspan>
<tspan x="10" y="3978">2016-06-11 19:57:41 +0300u000a- npm publish 2016.5.1</tspan>
<tspan x="10" y="3994">- add standalone-app download-link in test-page</tspan>
<tspan x="10" y="4010">- add homepage-link in test-page, test-report, coverage-report</tspan>
<tspan x="10" y="4026">- move shell function shDocApiCreate to javascript function testCase_build_doc</tspan>
<tspan x="10" y="4042">- add function utility2.middlewareJsonpStateGet, utility2.stateInit</tspan>
<tspan x="10" y="4058"></tspan>
<tspan x="10" y="4074">2016-05-30 14:45:08 +0300u000a- npm publish 2016.4.2</tspan>
<tspan x="10" y="4090">- add functions utility2.objectLiteral, utility2.onResetAfter, utility2.onResetBefore</tspan>
<tspan x="10" y="4106">- split function utility2.onReady into utility2.onReadyBefore and utility2.onReadyAfter</tspan>
<tspan x="10" y="4122"></tspan>
<tspan x="10" y="4138">2016-05-24 01:28:12 +0300u000a- npm publish 2016.4.1</tspan>
<tspan x="10" y="4154">- update electron-lite devDependency</tspan>
<tspan x="10" y="4170"></tspan>
<tspan x="10" y="4186">2016-05-20 17:37:40 +0300u000a- npm publish 2016.3.6</tspan>
<tspan x="10" y="4202">- jslint - remove hacky es6 generator support</tspan>
<tspan x="10" y="4218">- add shell function shHttpFileServer</tspan>
<tspan x="10" y="4234">- add functions utility2.cookieDict, utility2.cookieRemove, utility2.cookieRemoveAll, utility2.c\</tspan>
<tspan x="10" y="4250">ookieSet</tspan>
<tspan x="10" y="4266">- allow argument for arbitrary string method in utility2.templateRender</tspan>
</text>
</svg>
