<svg height="1310" width="720" xmlns="http://www.w3.org/2000/svg">
<rect height="1310" fill="#555" width="720"></rect>
<text fill="#7f7" font-family="Courier New" font-size="12" xml:space="preserve">
<tspan x="10" y="26"></tspan>
<tspan x="10" y="42">&gt; electron-lite@2017.3.7 postinstall /tmp/app/node_modules/electron-lite</tspan>
<tspan x="10" y="58">&gt; if [ -f lib.electron.npm_scripts.sh ]; then ./lib.electron.npm_scripts.sh postinstall; fi</tspan>
<tspan x="10" y="74"></tspan>
<tspan x="10" y="90"></tspan>
<tspan x="10" y="106">&gt; utility2@2017.3.17 postinstall /tmp/app/node_modules/utility2</tspan>
<tspan x="10" y="122">&gt; if [ -f lib.utility2.npm_scripts.sh ]; then ./lib.utility2.npm_scripts.sh postinstall; fi</tspan>
<tspan x="10" y="138"></tspan>
<tspan x="10" y="154">/tmp/app</tspan>
<tspan x="10" y="170">├── electron-lite@2017.3.7 </tspan>
<tspan x="10" y="186">└── utility2@2017.3.17 </tspan>
<tspan x="10" y="202"></tspan>
<tspan x="10" y="218">npm WARN enoent ENOENT: no such file or directory, open '/tmp/app/package.json'</tspan>
<tspan x="10" y="234">npm WARN app No description</tspan>
<tspan x="10" y="250">npm WARN app No repository field.</tspan>
<tspan x="10" y="266">npm WARN app No README data</tspan>
<tspan x="10" y="282">npm WARN app No license field.</tspan>
<tspan x="10" y="298"></tspan>
<tspan x="10" y="314">[MODE_BUILD=testExampleJs] - 2017-03-19T10:44:38Z - npm-testing /tmp/app</tspan>
<tspan x="10" y="330"></tspan>
<tspan x="10" y="346"></tspan>
<tspan x="10" y="362">covering $ /home/travis/.nvm/versions/node/v7.7.3/bin/node /tmp/app/example.js</tspan>
<tspan x="10" y="378">server listening on http-port 8081</tspan>
<tspan x="10" y="394"></tspan>
<tspan x="10" y="410">browserTest - created electron entry-page /tmp/app/tmp/electron.15ae62b41100.47139d5bd58a6.html</tspan>
<tspan x="10" y="426"></tspan>
<tspan x="10" y="442">Xlib:  extension "RANDR" missing on display ":99.0".</tspan>
<tspan x="10" y="458">Xlib:  extension "RANDR" missing on display ":99.0".</tspan>
<tspan x="10" y="474">[4222:0319/104439:WARNING:audio_manager.cc(314)] Multiple instances of AudioManager detected</tspan>
<tspan x="10" y="490">[4222:0319/104439:WARNING:audio_manager.cc(275)] Multiple instances of AudioManager detected</tspan>
<tspan x="10" y="506">[4244:0319/104439:ERROR:sandbox_linux.cc(343)] InitializeSandbox() called with multiple threads \</tspan>
<tspan x="10" y="522">in process gpu-process. </tspan>
<tspan x="10" y="538"></tspan>
<tspan x="10" y="554">browserTest - opened url http://127.0.0.1:8081?modeTest=1</tspan>
<tspan x="10" y="570"></tspan>
<tspan x="10" y="586">[4222:0319/104440:INFO:CONSOLE(203)] "server listening on http-port undefined", source: file:///\</tspan>
<tspan x="10" y="602">tmp/app/tmp/electron.15ae62b41100.47139d5bd58a6.html (203)</tspan>
<tspan x="10" y="618">[4222:0319/104440:INFO:CONSOLE(203)] "[browser test-case 1 of 2 passed] - testCase_ajax_200", so\</tspan>
<tspan x="10" y="634">urce: file:///tmp/app/tmp/electron.15ae62b41100.47139d5bd58a6.html (203)</tspan>
<tspan x="10" y="650">[4222:0319/104440:INFO:CONSOLE(203)] "[browser test-case 2 of 2 passed] - testCase_ajax_404", so\</tspan>
<tspan x="10" y="666">urce: file:///tmp/app/tmp/electron.15ae62b41100.47139d5bd58a6.html (203)</tspan>
<tspan x="10" y="682"></tspan>
<tspan x="10" y="698">browserTest - created screen-capture file:///home/travis/build/kaizhu256/node-utility2/tmp/build\</tspan>
<tspan x="10" y="714">/screen-capture.testExampleJs.browser..png</tspan>
<tspan x="10" y="730"></tspan>
<tspan x="10" y="746"></tspan>
<tspan x="10" y="762">browserTest - exit-code 0 - http://127.0.0.1:8081?modeTest=1</tspan>
<tspan x="10" y="778"></tspan>
<tspan x="10" y="794"></tspan>
<tspan x="10" y="810">browserTest - merging test-report from /tmp/app/tmp/test-report.testExampleJs.browser.%2F.json</tspan>
<tspan x="10" y="826"></tspan>
<tspan x="10" y="842">[node test-case 1 of 1 passed] - testCase_webpage_default</tspan>
<tspan x="10" y="858">-----------------|-----------|-----------|-----------|-----------|</tspan>
<tspan x="10" y="874">File             |   % Stmts |% Branches |   % Funcs |   % Lines |</tspan>
<tspan x="10" y="890">-----------------|-----------|-----------|-----------|-----------|</tspan>
<tspan x="10" y="906">   app/          |      86.4 |      92.5 |     68.42 |      86.4 |</tspan>
<tspan x="10" y="922">      example.js |      86.4 |      92.5 |     68.42 |      86.4 |</tspan>
<tspan x="10" y="938">-----------------|-----------|-----------|-----------|-----------|</tspan>
<tspan x="10" y="954">All files        |      86.4 |      92.5 |     68.42 |      86.4 |</tspan>
<tspan x="10" y="970">-----------------|-----------|-----------|-----------|-----------|</tspan>
<tspan x="10" y="986"></tspan>
<tspan x="10" y="1002">created coverage file:///tmp/app/tmp/build/coverage.html/index.html</tspan>
<tspan x="10" y="1018"></tspan>
<tspan x="10" y="1034">-------------------------------------------------------</tspan>
<tspan x="10" y="1050">| test-report - testExampleJs - browser - / - Mozilla/5.0 (X11; Linux x86_64) AppleWebKit/537.36\</tspan>
<tspan x="10" y="1066"> (KHTML, like Gecko) Chrome/53.0.2785.143 Electron/1.4.15 Safari/537.36 - 2017-03-19T10:44:40.27\</tspan>
<tspan x="10" y="1082">4Z</tspan>
<tspan x="10" y="1098">|      36 ms            0 failed        2 passed      |</tspan>
<tspan x="10" y="1114">-------------------------------------------------------</tspan>
<tspan x="10" y="1130">| test-report - testExampleJs - node - linux v7.7.3 - 2017-03-19T10:44:38.640Z</tspan>
<tspan x="10" y="1146">|    6297 ms            0 failed        1 passed      |</tspan>
<tspan x="10" y="1162">-------------------------------------------------------</tspan>
<tspan x="10" y="1178"></tspan>
<tspan x="10" y="1194">created test-report file:///home/travis/build/kaizhu256/node-utility2/tmp/build/test-report.html</tspan>
<tspan x="10" y="1210"></tspan>
<tspan x="10" y="1226"></tspan>
<tspan x="10" y="1242">testExampleJs - 0 failed tests</tspan>
<tspan x="10" y="1258"></tspan>
<tspan x="10" y="1274"></tspan>
<tspan x="10" y="1290">[MODE_BUILD=testExampleJs] - 2017-03-19T10:44:46Z - EXIT_CODE - 0</tspan>
</text>
</svg>
