<svg height="1726" width="720" xmlns="http://www.w3.org/2000/svg">
<rect height="1726" fill="#555" width="720"></rect>
<text fill="#7f7" font-family="Courier New" font-size="12" xml:space="preserve">
<tspan x="10" y="26"></tspan>
<tspan x="10" y="42">[MODE_BUILD=testExampleJs] - 2017-02-21T11:55:07Z - testing example.js</tspan>
<tspan x="10" y="58"></tspan>
<tspan x="10" y="74">npm install electron-lite utility2 &amp;&amp;             PATH="$(pwd)/node_modules/.bin:$PATH"         \</tspan>
<tspan x="10" y="90">    PORT=8081             npm_config_mode_coverage=utility2             node_modules/.bin/utilit\</tspan>
<tspan x="10" y="106">y2 test example.js</tspan>
<tspan x="10" y="122"></tspan>
<tspan x="10" y="138"></tspan>
<tspan x="10" y="154">&gt; electron-lite@2017.1.6 postinstall /tmp/app/node_modules/electron-lite</tspan>
<tspan x="10" y="170">&gt; if [ -f lib.electron.npm-scripts.sh ]; then ./lib.electron.npm-scripts.sh postinstall; fi</tspan>
<tspan x="10" y="186"></tspan>
<tspan x="10" y="202"></tspan>
<tspan x="10" y="218">&gt; utility2@2017.2.20 postinstall /tmp/app/node_modules/utility2</tspan>
<tspan x="10" y="234">&gt; if [ -f lib.utility2.npm-scripts.sh ]; then ./lib.utility2.npm-scripts.sh postinstall; fi</tspan>
<tspan x="10" y="250"></tspan>
<tspan x="10" y="266">/tmp/app</tspan>
<tspan x="10" y="282">├── electron-lite@2017.1.6 </tspan>
<tspan x="10" y="298">└── utility2@2017.2.20 </tspan>
<tspan x="10" y="314"></tspan>
<tspan x="10" y="330">npm WARN enoent ENOENT: no such file or directory, open '/tmp/app/package.json'</tspan>
<tspan x="10" y="346">npm WARN app No description</tspan>
<tspan x="10" y="362">npm WARN app No repository field.</tspan>
<tspan x="10" y="378">npm WARN app No README data</tspan>
<tspan x="10" y="394">npm WARN app No license field.</tspan>
<tspan x="10" y="410"></tspan>
<tspan x="10" y="426">[MODE_BUILD=testExampleJs] - 2017-02-21T11:55:10Z - npm-testing /tmp/app</tspan>
<tspan x="10" y="442"></tspan>
<tspan x="10" y="458"></tspan>
<tspan x="10" y="474">covering $ /home/travis/.nvm/versions/node/v7.5.0/bin/node /tmp/app/example.js</tspan>
<tspan x="10" y="490">server listening on http-port 8081</tspan>
<tspan x="10" y="506"></tspan>
<tspan x="10" y="522">browserTest - created electron entry-page /tmp/app/tmp/electron.15a60867cc60.880c0797218d.html</tspan>
<tspan x="10" y="538"></tspan>
<tspan x="10" y="554">[4090:0221/115511:ERROR:browser_main_loop.cc(231)] Running without the SUID sandbox! See https:/\</tspan>
<tspan x="10" y="570">/chromium.googlesource.com/chromium/src/+/master/docs/linux_suid_sandbox_development.md for more\</tspan>
<tspan x="10" y="586"> information on developing with the sandbox on.</tspan>
<tspan x="10" y="602">Xlib:  extension "RANDR" missing on display ":99.0".</tspan>
<tspan x="10" y="618">Xlib:  extension "RANDR" missing on display ":99.0".</tspan>
<tspan x="10" y="634">[4128:0221/115511:ERROR:sandbox_linux.cc(343)] InitializeSandbox() called with multiple threads \</tspan>
<tspan x="10" y="650">in process gpu-process. </tspan>
<tspan x="10" y="666">[4090:0221/115511:WARNING:audio_manager.cc(314)] Multiple instances of AudioManager detected</tspan>
<tspan x="10" y="682">[4090:0221/115511:WARNING:audio_manager.cc(275)] Multiple instances of AudioManager detected</tspan>
<tspan x="10" y="698"></tspan>
<tspan x="10" y="714">browserTest - opened url http://127.0.0.1:8081?modeTest=1</tspan>
<tspan x="10" y="730"></tspan>
<tspan x="10" y="746">[4090:0221/115512:INFO:CONSOLE(199)] "server listening on http-port undefined", source: file:///\</tspan>
<tspan x="10" y="762">tmp/app/tmp/electron.15a60867cc60.880c0797218d.html (199)</tspan>
<tspan x="10" y="778">[4090:0221/115512:INFO:CONSOLE(199)] "[browser test-case 1 of 2 passed] - testCase_ajax_404", so\</tspan>
<tspan x="10" y="794">urce: file:///tmp/app/tmp/electron.15a60867cc60.880c0797218d.html (199)</tspan>
<tspan x="10" y="810">[4090:0221/115512:INFO:CONSOLE(199)] "[browser test-case 2 of 2 passed] - testCase_ajax_200", so\</tspan>
<tspan x="10" y="826">urce: file:///tmp/app/tmp/electron.15a60867cc60.880c0797218d.html (199)</tspan>
<tspan x="10" y="842"></tspan>
<tspan x="10" y="858">browserTest - created screen-capture file:///tmp/app/tmp/build/screen-capture.testExampleJs.brow\</tspan>
<tspan x="10" y="874">ser..png</tspan>
<tspan x="10" y="890"></tspan>
<tspan x="10" y="906"></tspan>
<tspan x="10" y="922">browserTest - exit-code 0 - http://127.0.0.1:8081?modeTest=1</tspan>
<tspan x="10" y="938"></tspan>
<tspan x="10" y="954"></tspan>
<tspan x="10" y="970">browserTest - merging test-report from /tmp/app/tmp/test-report.testExampleJs.browser.%2F.json</tspan>
<tspan x="10" y="986"></tspan>
<tspan x="10" y="1002">[node test-case 1 of 1 passed] - testCase_webpage_default</tspan>
<tspan x="10" y="1018">-----------------|-----------|-----------|-----------|-----------|</tspan>
<tspan x="10" y="1034">File             |   % Stmts |% Branches |   % Funcs |   % Lines |</tspan>
<tspan x="10" y="1050">-----------------|-----------|-----------|-----------|-----------|</tspan>
<tspan x="10" y="1066">   app/          |     83.96 |     89.09 |     66.67 |     83.96 |</tspan>
<tspan x="10" y="1082">      example.js |     83.96 |     89.09 |     66.67 |     83.96 |</tspan>
<tspan x="10" y="1098">-----------------|-----------|-----------|-----------|-----------|</tspan>
<tspan x="10" y="1114">All files        |     83.96 |     89.09 |     66.67 |     83.96 |</tspan>
<tspan x="10" y="1130">-----------------|-----------|-----------|-----------|-----------|</tspan>
<tspan x="10" y="1146"></tspan>
<tspan x="10" y="1162">created coverage file:///tmp/app/tmp/build/coverage.html/index.html</tspan>
<tspan x="10" y="1178"></tspan>
<tspan x="10" y="1194">-------------------------------------------------------</tspan>
<tspan x="10" y="1210">| test-report - testExampleJs - browser - / - Mozilla/5.0 (X11; Linux x86_64) AppleWebKit/537.36\</tspan>
<tspan x="10" y="1226"> (KHTML, like Gecko) Chrome/52.0.2743.82 Electron/1.3.13 Safari/537.36 - 2017-02-21T11:55:12.362\</tspan>
<tspan x="10" y="1242">Z</tspan>
<tspan x="10" y="1258">|      28 ms            0 failed        2 passed      |</tspan>
<tspan x="10" y="1274">-------------------------------------------------------</tspan>
<tspan x="10" y="1290">| test-report - testExampleJs - node - linux v7.5.0 - 2017-02-21T11:55:10.757Z</tspan>
<tspan x="10" y="1306">|    6271 ms            0 failed        1 passed      |</tspan>
<tspan x="10" y="1322">-------------------------------------------------------</tspan>
<tspan x="10" y="1338"></tspan>
<tspan x="10" y="1354">created test-report file:///tmp/app/tmp/build/test-report.html</tspan>
<tspan x="10" y="1370"></tspan>
<tspan x="10" y="1386"></tspan>
<tspan x="10" y="1402">testExampleJs - 0 failed tests</tspan>
<tspan x="10" y="1418"></tspan>
<tspan x="10" y="1434"></tspan>
<tspan x="10" y="1450">[MODE_BUILD=testExampleJs] - 2017-02-21T11:55:22Z - electron.screenCapture - http://127.0.0.1:80\</tspan>
<tspan x="10" y="1466">81</tspan>
<tspan x="10" y="1482"></tspan>
<tspan x="10" y="1498"></tspan>
<tspan x="10" y="1514">browserTest - created electron entry-page /home/travis/build/kaizhu256/node-utility2/tmp/electro\</tspan>
<tspan x="10" y="1530">n.15a6086ad580.7ba1ecc1db2.html</tspan>
<tspan x="10" y="1546"></tspan>
<tspan x="10" y="1562">[4242:0221/115523:ERROR:browser_main_loop.cc(231)] Running without the SUID sandbox! See https:/\</tspan>
<tspan x="10" y="1578">/chromium.googlesource.com/chromium/src/+/master/docs/linux_suid_sandbox_development.md for more\</tspan>
<tspan x="10" y="1594"> information on developing with the sandbox on.</tspan>
<tspan x="10" y="1610">Xlib:  extension "RANDR" missing on display ":99.0".</tspan>
<tspan x="10" y="1626">Xlib:  extension "RANDR" missing on display ":99.0".</tspan>
<tspan x="10" y="1642">[4242:0221/115523:WARNING:audio_manager.cc(314)] Multiple instances of AudioManager detected</tspan>
<tspan x="10" y="1658">[4242:0221/115523:WARNING:audio_manager.cc(275)] Multiple instances of AudioManager detected</tspan>
<tspan x="10" y="1674">[4282:0221/115523:ERROR:sandbox_linux.cc(343)] InitializeSandbox() called with multiple threads \</tspan>
<tspan x="10" y="1690">in process gpu-process. </tspan>
<tspan x="10" y="1706">[4242:0221/115523:ERROR:browser_gpu_channel_host_factory.cc(131)] Failed to create channel.</tspan>
</text>
</svg>
