<svg height="1566" width="720" xmlns="http://www.w3.org/2000/svg">
<rect height="1566" fill="#555" width="720"></rect>
<text fill="#7f7" font-family="Courier New" font-size="12" xml:space="preserve">
<tspan x="10" y="26"></tspan>
<tspan x="10" y="42">[MODE_BUILD=testExampleSh] - 2017-02-21T11:56:06Z - testing example.sh</tspan>
<tspan x="10" y="58"></tspan>
<tspan x="10" y="74"># example.sh</tspan>
<tspan x="10" y="90"></tspan>
<tspan x="10" y="106"># this shell script will serve a webpage that will interactively run browser-tests with coverage</tspan>
<tspan x="10" y="122"></tspan>
<tspan x="10" y="138"># instruction</tspan>
<tspan x="10" y="154">    # 1. copy and paste this entire shell script into a console and press enter</tspan>
<tspan x="10" y="170">    # 2. play with the browser-demo on http://127.0.0.1:8081</tspan>
<tspan x="10" y="186"></tspan>
<tspan x="10" y="202">shExampleSh() {(set -e</tspan>
<tspan x="10" y="218">    # npm install utility2</tspan>
<tspan x="10" y="234">    npm install utility2</tspan>
<tspan x="10" y="250">    # serve a webpage that will interactively run browser-tests with coverage</tspan>
<tspan x="10" y="266">    cd node_modules/utility2 &amp;&amp; export PORT=8081 &amp;&amp; npm start</tspan>
<tspan x="10" y="282">)}</tspan>
<tspan x="10" y="298">shExampleSh</tspan>
<tspan x="10" y="314"></tspan>
<tspan x="10" y="330">&gt; utility2@2017.2.20 postinstall /tmp/app/node_modules/utility2</tspan>
<tspan x="10" y="346">&gt; if [ -f lib.utility2.npm-scripts.sh ]; then ./lib.utility2.npm-scripts.sh postinstall; fi</tspan>
<tspan x="10" y="362"></tspan>
<tspan x="10" y="378">/tmp/app</tspan>
<tspan x="10" y="394">└── utility2@2017.2.20 </tspan>
<tspan x="10" y="410"></tspan>
<tspan x="10" y="426">npm WARN enoent ENOENT: no such file or directory, open '/tmp/app/package.json'</tspan>
<tspan x="10" y="442">npm WARN app No description</tspan>
<tspan x="10" y="458">npm WARN app No repository field.</tspan>
<tspan x="10" y="474">npm WARN app No README data</tspan>
<tspan x="10" y="490">npm WARN app No license field.</tspan>
<tspan x="10" y="506"></tspan>
<tspan x="10" y="522">&gt; utility2@2017.2.20 start /tmp/app/node_modules/utility2</tspan>
<tspan x="10" y="538">&gt; export PORT=${PORT:-8080} &amp;&amp; if [ -f assets.app.js ]; then node assets.app.js; return; fi &amp;&amp; e\</tspan>
<tspan x="10" y="554">xport npm_config_mode_auto_restart=1 &amp;&amp; ./lib.utility2.sh shRun shIstanbulCover test.js</tspan>
<tspan x="10" y="570"></tspan>
<tspan x="10" y="586">(re)starting shIstanbulCover test.js</tspan>
<tspan x="10" y="602">&gt; server listening on http-port 8081</tspan>
<tspan x="10" y="618"></tspan>
<tspan x="10" y="634">[MODE_BUILD=testExampleSh] - 2017-02-21T11:56:21Z - electron.screenCapture - http://127.0.0.1:80\</tspan>
<tspan x="10" y="650">81</tspan>
<tspan x="10" y="666"></tspan>
<tspan x="10" y="682"></tspan>
<tspan x="10" y="698">browserTest - created electron entry-page /home/travis/build/kaizhu256/node-utility2/tmp/electro\</tspan>
<tspan x="10" y="714">n.15a608792c90.94212fa594e36.html</tspan>
<tspan x="10" y="730"></tspan>
<tspan x="10" y="746">[4607:0221/115622:ERROR:browser_main_loop.cc(231)] Running without the SUID sandbox! See https:/\</tspan>
<tspan x="10" y="762">/chromium.googlesource.com/chromium/src/+/master/docs/linux_suid_sandbox_development.md for more\</tspan>
<tspan x="10" y="778"> information on developing with the sandbox on.</tspan>
<tspan x="10" y="794">Xlib:  extension "RANDR" missing on display ":99.0".</tspan>
<tspan x="10" y="810">Xlib:  extension "RANDR" missing on display ":99.0".</tspan>
<tspan x="10" y="826">[4607:0221/115622:WARNING:audio_manager.cc(314)] Multiple instances of AudioManager detected</tspan>
<tspan x="10" y="842">[4607:0221/115622:WARNING:audio_manager.cc(275)] Multiple instances of AudioManager detected</tspan>
<tspan x="10" y="858">[4630:0221/115622:ERROR:sandbox_linux.cc(343)] InitializeSandbox() called with multiple threads \</tspan>
<tspan x="10" y="874">in process gpu-process. </tspan>
<tspan x="10" y="890">[4607:0221/115622:ERROR:browser_gpu_channel_host_factory.cc(131)] Failed to create channel.</tspan>
<tspan x="10" y="906"></tspan>
<tspan x="10" y="922">browserTest - opened url http://127.0.0.1:8081</tspan>
<tspan x="10" y="938"></tspan>
<tspan x="10" y="954">[4607:0221/115623:INFO:CONSOLE(199)] "server listening on http-port undefined", source: file:///\</tspan>
<tspan x="10" y="970">home/travis/build/kaizhu256/node-utility2/tmp/electron.15a608792c90.94212fa594e36.html (199)</tspan>
<tspan x="10" y="986">[4607:0221/115623:INFO:CONSOLE(199)] "created coverage file:///tmp/build/coverage.html/index.htm\</tspan>
<tspan x="10" y="1002">l", source: file:///home/travis/build/kaizhu256/node-utility2/tmp/electron.15a608792c90.94212fa5\</tspan>
<tspan x="10" y="1018">94e36.html (199)</tspan>
<tspan x="10" y="1034">[4607:0221/115623:INFO:CONSOLE(199)] "</tspan>
<tspan x="10" y="1050">testCase testCase_failed_assertion_demo failed</tspan>
<tspan x="10" y="1066">this is a failed assertion demo</tspan>
<tspan x="10" y="1082">Error: this is a failed assertion demo</tspan>
<tspan x="10" y="1098">    at Object.local.assert (http://127.0.0.1:8081/assets.utility2.js:1617:19)</tspan>
<tspan x="10" y="1114">    at Object.testCaseDict.testCase_failed_assertion_demo [as onTestCase] (eval at &lt;anonymous&gt; (\</tspan>
<tspan x="10" y="1130">http://127.0.0.1:8081/assets.example.js:296:21), &lt;anonymous&gt;:9:462)</tspan>
<tspan x="10" y="1146">    at http://127.0.0.1:8081/assets.utility2.js:4880:30</tspan>
<tspan x="10" y="1162">    at Object.local.tryCatchOnError (http://127.0.0.1:8081/assets.utility2.js:4949:24)</tspan>
<tspan x="10" y="1178">    at http://127.0.0.1:8081/assets.utility2.js:4877:23</tspan>
<tspan x="10" y="1194">    at Array.forEach (native)</tspan>
<tspan x="10" y="1210">    at Object.local.testRunDefault (http://127.0.0.1:8081/assets.utility2.js:4831:47)</tspan>
<tspan x="10" y="1226">    at http://127.0.0.1:8081/assets.utility2.js:4726:35</tspan>
<tspan x="10" y="1242">    at http://127.0.0.1:8081/assets.utility2.js:3494:17</tspan>
<tspan x="10" y="1258">    at http://127.0.0.1:8081/assets.utility2.js:4272:29", source: file:///home/travis/build/kaiz\</tspan>
<tspan x="10" y="1274">hu256/node-utility2/tmp/electron.15a608792c90.94212fa594e36.html (199)</tspan>
<tspan x="10" y="1290">[4607:0221/115623:INFO:CONSOLE(199)] "[browser test-case 1 of 2 failed] - testCase_failed_assert\</tspan>
<tspan x="10" y="1306">ion_demo", source: file:///home/travis/build/kaizhu256/node-utility2/tmp/electron.15a608792c90.9\</tspan>
<tspan x="10" y="1322">4212fa594e36.html (199)</tspan>
<tspan x="10" y="1338">[4607:0221/115623:INFO:CONSOLE(199)] "[browser test-case 2 of 2 passed] - testCase_passed_ajax_d\</tspan>
<tspan x="10" y="1354">emo", source: file:///home/travis/build/kaizhu256/node-utility2/tmp/electron.15a608792c90.94212f\</tspan>
<tspan x="10" y="1370">a594e36.html (199)</tspan>
<tspan x="10" y="1386">[4607:0221/115624:INFO:CONSOLE(199)] "created coverage file:///tmp/build/coverage.html/index.htm\</tspan>
<tspan x="10" y="1402">l", source: file:///home/travis/build/kaizhu256/node-utility2/tmp/electron.15a608792c90.94212fa5\</tspan>
<tspan x="10" y="1418">94e36.html (199)</tspan>
<tspan x="10" y="1434"></tspan>
<tspan x="10" y="1450">browserTest - created screen-capture file:///home/travis/build/kaizhu256/node-utility2/tmp/build\</tspan>
<tspan x="10" y="1466">/screen-capture.testExampleSh.browser..png</tspan>
<tspan x="10" y="1482"></tspan>
<tspan x="10" y="1498"></tspan>
<tspan x="10" y="1514">browserTest - exit-code 0 - http://127.0.0.1:8081</tspan>
<tspan x="10" y="1530"></tspan>
<tspan x="10" y="1546">process exited with code 0</tspan>
</text>
</svg>
