<svg height="4862" width="720" xmlns="http://www.w3.org/2000/svg">
<rect height="4862" fill="#555" width="720"></rect>
<text fill="#7f7" font-family="Courier New" font-size="12" xml:space="preserve">
<tspan x="10" y="26">2017-03-17 21:15:11 +0800u000a[npm publish] - npm publish 2017.3.17</tspan>
<tspan x="10" y="42">- fix quickstart demo for example.js</tspan>
<tspan x="10" y="58">- allow auto-deprecating of aliases in publish branch</tspan>
<tspan x="10" y="74">- allow auto-publishing of aliases in publish branch</tspan>
<tspan x="10" y="90"></tspan>
<tspan x="10" y="106">2017-03-17 05:05:24 +0800u000a[npm publish] - npm publish 2017.3.16</tspan>
<tspan x="10" y="122">- add function buildNpmdoc and buildTest</tspan>
<tspan x="10" y="138">- automate building and publishing of npmdoc's</tspan>
<tspan x="10" y="154">- commit tag 'npm publish' will publish package in alpha-branch and promote to beta</tspan>
<tspan x="10" y="170">- harden shell-function shPasswordEnvUnset</tspan>
<tspan x="10" y="186">- remove '|| return $?' from shell-scripts when possible to fix 'set -e' failing to exit on erro\</tspan>
<tspan x="10" y="202">r</tspan>
<tspan x="10" y="218">- rename function onErrorAssert -&gt; onErrorThrow</tspan>
<tspan x="10" y="234">- partially revert npm_package_nameAlias back to npm_package_name</tspan>
<tspan x="10" y="250"></tspan>
<tspan x="10" y="266">2017-03-11 03:56:44 +0800u000a- npm publish 2017.3.10</tspan>
<tspan x="10" y="282">- fix build in beta branch</tspan>
<tspan x="10" y="298"></tspan>
<tspan x="10" y="314">2017-03-11 02:50:36 +0800u000a- npm publish 2017.3.9</tspan>
<tspan x="10" y="330">- add functions moduleDirname and onErrorAssert</tspan>
<tspan x="10" y="346">- add shell-command shPasswordEnvUnset</tspan>
<tspan x="10" y="362">- rename name api-doc -&gt; apidoc</tspan>
<tspan x="10" y="378">- revamp build scripts</tspan>
<tspan x="10" y="394">- split function buildApidoc into new file lib.apidoc.js</tspan>
<tspan x="10" y="410">- verify README.md's build-links during build</tspan>
<tspan x="10" y="426"></tspan>
<tspan x="10" y="442">2017-03-01 17:52:26 +0800u000a- npm publish 2017.2.28</tspan>
<tspan x="10" y="458">- build - add publish build-branch</tspan>
<tspan x="10" y="474">- build - auto-clean build if commit-message is CLEAN_BUILD</tspan>
<tspan x="10" y="490">- build - auto-tag branch in master build-branch</tspan>
<tspan x="10" y="506">- README.md - normalize browser-script in example.js</tspan>
<tspan x="10" y="522">- promote utility2 plug in README.md, api-doc, code-coverage, rollup, test-coverage</tspan>
<tspan x="10" y="538">- lib.db.js - add ttl-cache</tspan>
<tspan x="10" y="554">- lib.utility2.js - revamp function buildApiDoc</tspan>
<tspan x="10" y="570">- lib.utility2.sh - revamp shell-function shNpmPublish</tspan>
<tspan x="10" y="586"></tspan>
<tspan x="10" y="602">2017-02-21 03:06:56 +0800u000a- npm publish 2017.2.20</tspan>
<tspan x="10" y="618">- add field nameOriginal to package.json</tspan>
<tspan x="10" y="634">- do not cover rollups</tspan>
<tspan x="10" y="650">- merge shell-function shNpmPublishAlias into shNpmPublish</tspan>
<tspan x="10" y="666">- normalize example.html</tspan>
<tspan x="10" y="682"></tspan>
<tspan x="10" y="698">2017-02-20 02:49:59 +0800u000a- npm publish 2017.2.19</tspan>
<tspan x="10" y="714">- replace env var npm_package_name with npm_package_nameAlias in istanbul code-coverage</tspan>
<tspan x="10" y="730">- revamp shell-function shNpmPublishAlias</tspan>
<tspan x="10" y="746"></tspan>
<tspan x="10" y="762">2017-02-19 01:09:51 +0800u000a- npm publish 2017.2.18</tspan>
<tspan x="10" y="778">- add shell-function shReadmeTestExampleJs</tspan>
<tspan x="10" y="794">- do not auto-uglify js-assets in production</tspan>
<tspan x="10" y="810">- rename doc-api to api-doc</tspan>
<tspan x="10" y="826">- rename hrku01 to h1</tspan>
<tspan x="10" y="842">- rename local.template* to local.assetsDict[assets.*.template]</tspan>
<tspan x="10" y="858">- revamp function buildApiDoc</tspan>
<tspan x="10" y="874">- revamp function buildReadme and include testCase_buildReadme_default inside testCase_buildApp_\</tspan>
<tspan x="10" y="890">default</tspan>
<tspan x="10" y="906">- remove functions assetsAlias, assetsWrite</tspan>
<tspan x="10" y="922">- use env var npm_package_nameAlias over npm_package_name</tspan>
<tspan x="10" y="938"></tspan>
<tspan x="10" y="954">2017-02-06 21:14:20 +0800u000a- npm publish 2017.2.6</tspan>
<tspan x="10" y="970">- allow env var npm_config_mode_test_case to have comma-separated list of test-cases</tspan>
<tspan x="10" y="986">- replace function requestResponseCleanup with streamListCleanup</tspan>
<tspan x="10" y="1002">- don't use nameAlias in assets</tspan>
<tspan x="10" y="1018">- rename base64 functions with base64 as prefix</tspan>
<tspan x="10" y="1034">- add commandline options --eval -e --interactive -i</tspan>
<tspan x="10" y="1050">- add env var npm_pacakge_nameHeroku</tspan>
<tspan x="10" y="1066">- add function assetsAlias</tspan>
<tspan x="10" y="1082">- add shell-functions shUtility2DependentsSync shUtility2RollupCreate</tspan>
<tspan x="10" y="1098">- merge files lib.* into standaalone file assets.utility2.rollup.js</tspan>
<tspan x="10" y="1114">- merge files lib.swgg.* into lib.swgg.js</tspan>
<tspan x="10" y="1130"></tspan>
<tspan x="10" y="1146">2017-01-27 14:44:40 +0800u000a- move most logic from Dockerfile.latest to Dockerfile.base</tspan>
<tspan x="10" y="1162">- add shell-function shImageToDataUri</tspan>
<tspan x="10" y="1178">- add shell-function shSshReverseTunnel</tspan>
<tspan x="10" y="1194">- add function sjclHmacSha256Create</tspan>
<tspan x="10" y="1210">- replace localhost with 127.0.0.1</tspan>
<tspan x="10" y="1226"></tspan>
<tspan x="10" y="1242">2017-01-05 20:57:31 +0800u000a- npm publish 2017.1.5</tspan>
<tspan x="10" y="1258">- automate readme-generation with new functions local.buildReadmeElectronLite and local.buildRea\</tspan>
<tspan x="10" y="1274">dmeJslintLite</tspan>
<tspan x="10" y="1290">- revamp github-crud-api</tspan>
<tspan x="10" y="1306">- add function httpRequest</tspan>
<tspan x="10" y="1322">- add shell-function shNpmPublishAlias</tspan>
<tspan x="10" y="1338">- remove function domQuerySelectorAll</tspan>
<tspan x="10" y="1354">- update documentation-generator</tspan>
<tspan x="10" y="1370"></tspan>
<tspan x="10" y="1386">2016-12-26 15:10:22 +0800u000a- add file lib.swgg.css</tspan>
<tspan x="10" y="1402">- add file lib.swgg.js</tspan>
<tspan x="10" y="1418">- add file lib.swgg.json-schema.json</tspan>
<tspan x="10" y="1434">- add file lib.swgg.petstore.json</tspan>
<tspan x="10" y="1450">- add file lib.swgg.schema.json</tspan>
<tspan x="10" y="1466">- add file lib.swgg.ui.js</tspan>
<tspan x="10" y="1482">- add heroku-postbuild npm-script</tspan>
<tspan x="10" y="1498"></tspan>
<tspan x="10" y="1514">2016-12-25 02:10:59 +0800u000a- npm publish 2016.12.2</tspan>
<tspan x="10" y="1530">- merge github-crud into this package</tspan>
<tspan x="10" y="1546">- revamp heroku-deploy</tspan>
<tspan x="10" y="1562">- add middlewareForwardProxy</tspan>
<tspan x="10" y="1578">- add modeDebug option to function local.ajax</tspan>
<tspan x="10" y="1594"></tspan>
<tspan x="10" y="1610">2016-12-13 21:36:58 +0800u000a- npm publish 2016.12.1</tspan>
<tspan x="10" y="1626">- merge utility2 namespace into local namespace</tspan>
<tspan x="10" y="1642">- revamp encryption features to primarily use json-web-encryption</tspan>
<tspan x="10" y="1658"></tspan>
<tspan x="10" y="1674">2016-12-02 12:46:27 +0800u000a- npm publish 2016.11.2</tspan>
<tspan x="10" y="1690">- streamline build-process for other packages</tspan>
<tspan x="10" y="1706"></tspan>
<tspan x="10" y="1722">2016-11-29 15:15:04 +0800u000a- npm publish 2016.11.1</tspan>
<tspan x="10" y="1738">- rename files index.* -&gt; lib.utility2.*</tspan>
<tspan x="10" y="1754">- use 'local' as primary namespace for tests</tspan>
<tspan x="10" y="1770">- replace function uglifyIfProduction with assetsWrite</tspan>
<tspan x="10" y="1786">- rename function middlewareJsonpStateInitDefault -&gt; middlewareJsonpStateInit</tspan>
<tspan x="10" y="1802">- add env npm_package_nameAlias</tspan>
<tspan x="10" y="1818">- add webkit-polyfill for TextDecoder and TextEncoder</tspan>
<tspan x="10" y="1834"></tspan>
<tspan x="10" y="1850">2016-11-21 09:31:23 +0800u000a- npm publish 2016.10.4</tspan>
<tspan x="10" y="1866">- add es6-syntax support for code-coverage</tspan>
<tspan x="10" y="1882">- add functions utility2.normalizeDict and utility2.normalizeList</tspan>
<tspan x="10" y="1898">- coverage - globalize local.codeDict to global.__coverageCodeDict__</tspan>
<tspan x="10" y="1914">- coverage - add in-file config-var /* istanbul ignore all */ to ignore the file</tspan>
<tspan x="10" y="1930"></tspan>
<tspan x="10" y="1946">2016-11-11 20:03:17 +0800u000a- npm publish 2016.10.3</tspan>
<tspan x="10" y="1962">- coverage - add env-variable npm_config_mode_coverage_append to allow appending coverage to pre\</tspan>
<tspan x="10" y="1978">vious reports</tspan>
<tspan x="10" y="1994">- coverage - change behavior of npm_config_mode_coverage=all to cover all files</tspan>
<tspan x="10" y="2010">- function utility2.replStart - make it a standalone function</tspan>
<tspan x="10" y="2026">- function utility2.uglify - prefer uglifying code with 80-column-width</tspan>
<tspan x="10" y="2042"></tspan>
<tspan x="10" y="2058">2016-11-07 23:47:37 +0800u000a- npm publish 2016.10.2</tspan>
<tspan x="10" y="2074">- decouple lib.db.js from utility2's init</tspan>
<tspan x="10" y="2090">- replace loading spinner with topbar</tspan>
<tspan x="10" y="2106">- fix utility2.errorDefault getting its stack prepended</tspan>
<tspan x="10" y="2122">- rename .ajaxProgressDiv -&gt; #ajaxProgressDiv1, .testReportDiv -&gt; #testReportDiv1</tspan>
<tspan x="10" y="2138">- merge functions utility2.taskOnTaskUpsert and utility2.taskOnErrorPush -&gt; utility2.taskCreate</tspan>
<tspan x="10" y="2154">- change signature of function utility2.taskCreateCached</tspan>
<tspan x="10" y="2170">- remove functions utility2.ajaxProgressShow, utility2.dbReset</tspan>
<tspan x="10" y="2186">- README.md - add cdn-download links</tspan>
<tspan x="10" y="2202">- README.md - replace alpha api-doc with beta api-doc</tspan>
<tspan x="10" y="2218"></tspan>
<tspan x="10" y="2234">2016-10-17 20:46:38 +0800u000a- npm publish 2016.10.1</tspan>
<tspan x="10" y="2250">- migrate from lib.nedb.js to lib.db.js</tspan>
<tspan x="10" y="2266">- make index.js a standalone script</tspan>
<tspan x="10" y="2282">- add property utility2.testCaseDict</tspan>
<tspan x="10" y="2298">- cull testCase_xxx properties in function docApiCreate</tspan>
<tspan x="10" y="2314">- auto-default null / undefined arguments to empty object {} in utility2.objectSetDefault and ut\</tspan>
<tspan x="10" y="2330">ility2.objectSetOverride</tspan>
<tspan x="10" y="2346">- prevent potential infinite recursion bug in function utility2.onNext</tspan>
<tspan x="10" y="2362"></tspan>
<tspan x="10" y="2378">2016-10-02 11:46:13 +0800u000a- npm publish 2016.9.1</tspan>
<tspan x="10" y="2394">- revamp lib.nedb.js</tspan>
<tspan x="10" y="2410">- reset onReadyAfter for testRun</tspan>
<tspan x="10" y="2426">- add function utility2.onNext</tspan>
<tspan x="10" y="2442">- streamline test.js</tspan>
<tspan x="10" y="2458"></tspan>
<tspan x="10" y="2474">2016-08-27 10:56:36 +0800u000a- npm publish 2016.8.2</tspan>
<tspan x="10" y="2490">- ensure utility2.dbSeedListUpsert runs after utility2.onResetAfter</tspan>
<tspan x="10" y="2506"></tspan>
<tspan x="10" y="2522">2016-08-27 05:40:58 +0800u000a- npm publish 2016.8.1</tspan>
<tspan x="10" y="2538">- migrate nedb-api from swagger-lite to utility2</tspan>
<tspan x="10" y="2554">- add functions utility2.db*</tspan>
<tspan x="10" y="2570"></tspan>
<tspan x="10" y="2586">2016-08-12 05:38:50 +0200u000a- npm publish 2016.7.5</tspan>
<tspan x="10" y="2602">- handle repl-server-error</tspan>
<tspan x="10" y="2618">- display instrumented-code in web-ui</tspan>
<tspan x="10" y="2634">- strip base64 '=' padding from local.utility2.sjclCipherAes128Encrypt</tspan>
<tspan x="10" y="2650"></tspan>
<tspan x="10" y="2666">2016-08-07 21:41:12 +0200u000a- npm publish 2016.7.4</tspan>
<tspan x="10" y="2682">- fix example.js quickstart demo</tspan>
<tspan x="10" y="2698"></tspan>
<tspan x="10" y="2714">2016-08-07 21:09:53 +0200u000a- npm publish 2016.7.3</tspan>
<tspan x="10" y="2730">- deploy standalone-app to heroku</tspan>
<tspan x="10" y="2746">- allow repl-server to be accessed remotely via tcp</tspan>
<tspan x="10" y="2762">- add coverage option to command 'utility2 start'</tspan>
<tspan x="10" y="2778">- rename functions in jslint, stateInit, tasks</tspan>
<tspan x="10" y="2794"></tspan>
<tspan x="10" y="2810">2016-07-31 14:25:38 +0200u000a- npm publish 2016.7.2</tspan>
<tspan x="10" y="2826">- fix code-coverage in example.js</tspan>
<tspan x="10" y="2842"></tspan>
<tspan x="10" y="2858">2016-07-31 14:02:32 +0200u000a- npm publish 2016.7.1</tspan>
<tspan x="10" y="2874">- allow packages that don't depend on utility2 to be built by it</tspan>
<tspan x="10" y="2890">- fix shell function shTravisEncryptYml</tspan>
<tspan x="10" y="2906">- rename debugPrint to debugInline</tspan>
<tspan x="10" y="2922"></tspan>
<tspan x="10" y="2938">2016-07-16 16:12:03 +0200u000a- npm publish 2016.6.2</tspan>
<tspan x="10" y="2954">- fix coverage-key collision bug in istanbul instrumenter</tspan>
<tspan x="10" y="2970"></tspan>
<tspan x="10" y="2986">2016-07-16 13:23:34 +0200u000a- npm publish 2016.6.1</tspan>
<tspan x="10" y="3002">- replace lib bcrypt with sjcl.misc.scrypt</tspan>
<tspan x="10" y="3018">- replace lib cryptojs with sjcl</tspan>
<tspan x="10" y="3034"></tspan>
<tspan x="10" y="3050">2016-07-01 02:54:13 +0200u000a- npm publish 2016.5.5</tspan>
<tspan x="10" y="3066">- explicitly require the macro /* istanbul instrument in package ... */ for a file to be covered</tspan>
<tspan x="10" y="3082">- generalize utility2.requireExampleJsFromReadme</tspan>
<tspan x="10" y="3098">- merge shell function shReadmeExportScripts into shInit</tspan>
<tspan x="10" y="3114"></tspan>
<tspan x="10" y="3130">2016-06-15 17:55:10 +0300u000a- npm publish 2016.5.4</tspan>
<tspan x="10" y="3146">- deploy standalone app to heroku test-server</tspan>
<tspan x="10" y="3162">- add file lib.nedb.js</tspan>
<tspan x="10" y="3178">- add 'run internal test' button in webpage</tspan>
<tspan x="10" y="3194">- add env var npm_config_mode_backend to disable utility2.serverLocalUrlTest</tspan>
<tspan x="10" y="3210">- add download link for example.js and example.sh in README.md</tspan>
<tspan x="10" y="3226">- add minified asset assets.app.min.js</tspan>
<tspan x="10" y="3242">- prevent side-effects in function utility2.docApiCreate</tspan>
<tspan x="10" y="3258">- template README.md with package.json</tspan>
<tspan x="10" y="3274">- add function utility2.jslintAndPrintHtml</tspan>
<tspan x="10" y="3290">- replace function utility2.requireFromScript with utility2.requireExampleJsFromReadme</tspan>
<tspan x="10" y="3306">- fix missing screen-capture of npmTestPublished</tspan>
<tspan x="10" y="3322"></tspan>
<tspan x="10" y="3338">2016-06-12 01:36:58 +0300u000a- npm publish 2016.5.3</tspan>
<tspan x="10" y="3354">- add homepage-link in api-doc</tspan>
<tspan x="10" y="3370">- fix test-report styling</tspan>
<tspan x="10" y="3386"></tspan>
<tspan x="10" y="3402">2016-06-11 19:57:41 +0300u000a- npm publish 2016.5.1</tspan>
<tspan x="10" y="3418">- add standalone-app download-link in test-page</tspan>
<tspan x="10" y="3434">- add homepage-link in test-page, test-report, coverage-report</tspan>
<tspan x="10" y="3450">- move shell function shDocApiCreate to javascript function testCase_build_doc</tspan>
<tspan x="10" y="3466">- add function utility2.middlewareJsonpStateGet, utility2.stateInit</tspan>
<tspan x="10" y="3482"></tspan>
<tspan x="10" y="3498">2016-05-30 14:45:08 +0300u000a- npm publish 2016.4.2</tspan>
<tspan x="10" y="3514">- add functions utility2.objectLiteral, utility2.onResetAfter, utility2.onResetBefore</tspan>
<tspan x="10" y="3530">- split function utility2.onReady into utility2.onReadyBefore and utility2.onReadyAfter</tspan>
<tspan x="10" y="3546"></tspan>
<tspan x="10" y="3562">2016-05-24 01:28:12 +0300u000a- npm publish 2016.4.1</tspan>
<tspan x="10" y="3578">- update electron-lite devDependency</tspan>
<tspan x="10" y="3594"></tspan>
<tspan x="10" y="3610">2016-05-20 17:37:40 +0300u000a- npm publish 2016.3.6</tspan>
<tspan x="10" y="3626">- jslint - remove hacky es6 generator support</tspan>
<tspan x="10" y="3642">- add shell function shHttpFileServer</tspan>
<tspan x="10" y="3658">- add functions utility2.cookieDict, utility2.cookieRemove, utility2.cookieRemoveAll, utility2.c\</tspan>
<tspan x="10" y="3674">ookieSet</tspan>
<tspan x="10" y="3690">- allow argument for arbitrary string method in utility2.templateRender</tspan>
<tspan x="10" y="3706"></tspan>
<tspan x="10" y="3722">2016-05-07 14:59:43 +0300u000a- fix utility2.FormData.prototype.append from crashing when it tri\</tspan>
<tspan x="10" y="3738">es to set value.name to a browser file-object</tspan>
<tspan x="10" y="3754">- improve performance of utility2.tryCatchOnError</tspan>
<tspan x="10" y="3770">- function utility2.jslintAndPrint - add css support for flexbox</tspan>
<tspan x="10" y="3786">- add function utility2.assertJsonEqual and utility2.assertJsonNotEqual</tspan>
<tspan x="10" y="3802">- use handlebars-like syntax each/if/unless in utility2.templateRender</tspan>
<tspan x="10" y="3818"></tspan>
<tspan x="10" y="3834">2016-04-25 18:01:41 +0300u000a- npm publish 2016.3.4</tspan>
<tspan x="10" y="3850">- prevent _http.request from running utility2.serverLocalRequestHandler more than once</tspan>
<tspan x="10" y="3866">- fix missing lib.cryptojs.js in /assets.utility2.rollup.js</tspan>
<tspan x="10" y="3882"></tspan>
<tspan x="10" y="3898">2016-04-22 20:38:16 +0300u000a- npm publish 2016.3.3</tspan>
<tspan x="10" y="3914">- fix README.md</tspan>
<tspan x="10" y="3930"></tspan>
<tspan x="10" y="3946">2016-04-22 19:47:42 +0300u000a- npm publish 2016.3.2</tspan>
<tspan x="10" y="3962">- merge various docker builds into alpha branch</tspan>
<tspan x="10" y="3978">- replace  and /Users/kaizhu/src/utility2 with /Users/kaizhu/src/utility2 in index.sh</tspan>
<tspan x="10" y="3994"></tspan>
<tspan x="10" y="4010">2016-04-20 20:17:43 +0300u000a- npm publish 2016.3.1</tspan>
<tspan x="10" y="4026">- build and push docker images in travis</tspan>
<tspan x="10" y="4042">- replace shell function shReadmeExportFile with shReadmeExportScripts</tspan>
<tspan x="10" y="4058">- add shell function shFileTrimLeft</tspan>
<tspan x="10" y="4074">- rename utility2.ajax's options.responseType 'response' to 'stream'</tspan>
<tspan x="10" y="4090"></tspan>
<tspan x="10" y="4106">2016-04-03 18:48:53 +0800u000a- npm publish 2016.2.2</tspan>
<tspan x="10" y="4122">- remove modeJson and responseJSON properties from utility2.ajax request</tspan>
<tspan x="10" y="4138">- add function utility2.bufferCreateIfNotBuffer</tspan>
<tspan x="10" y="4154">- cover example.js</tspan>
<tspan x="10" y="4170">- add class utility2.Blob to emulate multipart/form-data file-upload in nodejs</tspan>
<tspan x="10" y="4186"></tspan>
<tspan x="10" y="4202">2016-03-31 00:30:56 +0800u000a- npm publish 2016.2.1</tspan>
<tspan x="10" y="4218">- allow interrupting of covered-npm-test without re-running uncovered-npm-test</tspan>
<tspan x="10" y="4234">- add function utility2.bufferCreate, utility2.bufferToNodeBuffer, utility2.bufferToString, util\</tspan>
<tspan x="10" y="4250">ity2.stringFromBase64, utility2.stringToBase64, utility2.timeElapsedStart, utility2.timeElapsedS\</tspan>
<tspan x="10" y="4266">top</tspan>
<tspan x="10" y="4282">- remove lib.stringview.js</tspan>
<tspan x="10" y="4298"></tspan>
<tspan x="10" y="4314">2016-03-19 16:31:05 +0800u000a- npm publish 2016.1.9</tspan>
<tspan x="10" y="4330">- fix syntax error in assets.utility2.rollup.js</tspan>
<tspan x="10" y="4346">- fix testCase_ajax_error sometimes timing out</tspan>
<tspan x="10" y="4362"></tspan>
<tspan x="10" y="4378">2016-03-19 05:08:57 +0800u000a- npm publish 2016.1.8</tspan>
<tspan x="10" y="4394">- use production env in shGithubDeploy</tspan>
<tspan x="10" y="4410">- add element-numbering in api-doc</tspan>
<tspan x="10" y="4426">- fix ajaxProgressDiv flicker when loading page</tspan>
<tspan x="10" y="4442">- add rolled-up asset /assets.utility2.rollup.js</tspan>
<tspan x="10" y="4458">- add class utility2.FormData to allow form-upload to serverLocal</tspan>
<tspan x="10" y="4474">- add function utility2.domElementQuerySelectorAll, utility2.blobRead, utility2.bufferConcat, ut\</tspan>
<tspan x="10" y="4490">ility2.bufferIndexOfSubBuffer</tspan>
<tspan x="10" y="4506"></tspan>
<tspan x="10" y="4522">2016-03-13 15:32:33 +0800u000a- npm publish 2016.1.7</tspan>
<tspan x="10" y="4538">- add file lib.stringview.js and function utility2.StringView</tspan>
<tspan x="10" y="4554">- add handlebars-like helpers #list, #if, #unless to utility2.templateRender</tspan>
<tspan x="10" y="4570"></tspan>
<tspan x="10" y="4586">2016-03-08 23:29:51 +0800u000a- npm publish 2016.1.6</tspan>
<tspan x="10" y="4602">- in function utility2.ajax, rename xhr.responseJson to xhr.responseJSON</tspan>
<tspan x="10" y="4618">- add conversion '&amp;' to '&amp;amp;' in function utility2.stringHtmlSafe</tspan>
<tspan x="10" y="4634"></tspan>
<tspan x="10" y="4650">2016-03-08 12:44:23 +0800u000a- rename utility2.testTryCatch to utility2.tryCatchOnError</tspan>
<tspan x="10" y="4666">- fix shell-command shNpmTest failing to re-run covered tests with no coverage</tspan>
<tspan x="10" y="4682">- rename utility2.stringFormat to utility2.templateRender and add conditional templating</tspan>
<tspan x="10" y="4698">- add functions utility2.cryptojsAesDecrypt, utility2.cryptojsAesEncrypt, utility2.jwtHs256Decod\</tspan>
<tspan x="10" y="4714">e, utility2.jwtHs256Encode, utility2.listGetElementRandom, local.utility2.profile, local.utility\</tspan>
<tspan x="10" y="4730">2.profileSync</tspan>
<tspan x="10" y="4746">- replace option modeJsonParseResponseText with modeJson in utility2.ajax</tspan>
<tspan x="10" y="4762">- utility2.docApiCreate now generates docs for non-functions as well</tspan>
<tspan x="10" y="4778">- add repl sugar keys</tspan>
<tspan x="10" y="4794">- simplify build with shell command shBuildCiDefault</tspan>
<tspan x="10" y="4810">- shell command shNpmTest defaults to NODE_ENV=test</tspan>
<tspan x="10" y="4826"></tspan>
<tspan x="10" y="4842">2016-02-29 00:55:00 +0800u000afix conflicts with origin/beta</tspan>
</text>
</svg>
